<?xml version="1.0" encoding="utf-8"?>
<!-- Generator: Adobe Illustrator 16.0.0, SVG Export Plug-In . SVG Version: 6.00 Build 0)  -->
<!DOCTYPE svg PUBLIC "-//W3C//DTD SVG 1.1//EN" "http://www.w3.org/Graphics/SVG/1.1/DTD/svg11.dtd">
<svg version="1.1" id="Layer_1" xmlns="http://www.w3.org/2000/svg" xmlns:xlink="http://www.w3.org/1999/xlink" x="0px" y="0px"
	 width="217px" height="921px" viewBox="-75.268 -389.634 217 921" enable-background="new -75.268 -389.634 217 921"
	 xml:space="preserve">
<path fill="#5E3E7D" d="M113.516-353.43C73.62-397.77,5.332-401.371-39.007-361.474c-44.34,39.896-47.941,108.184-8.046,152.522
	c9.636,10.708,20.93,19.034,33.14,24.951c0.619,0.478,1.207,1.011,1.749,1.613c4.956,5.508,4.509,13.991-0.999,18.947
	c-2.438,2.193-5.456,3.324-8.495,3.43c43.751,4.821,89.248-7.974,124.949-38.987c0.732-0.625,1.46-1.261,2.181-1.91
	C149.811-240.803,153.413-309.091,113.516-353.43z"/>
<path fill="#389B9C" d="M113.516-123.26C73.62-167.6,5.332-171.201-39.007-131.304c-44.34,39.896-47.941,108.184-8.046,152.522
	c9.636,10.709,20.93,19.033,33.14,24.951c0.619,0.478,1.207,1.012,1.749,1.613c4.956,5.508,4.509,13.991-0.999,18.947
	c-2.438,2.193-5.456,3.324-8.495,3.43c43.751,4.821,89.248-7.974,124.949-38.986c0.732-0.626,1.46-1.262,2.181-1.91
	C149.811-10.634,153.413-78.921,113.516-123.26z"/>
<path fill="#F9A533" d="M113.516,106.345C73.62,62.006,5.332,58.406-39.007,98.302c-44.34,39.896-47.941,108.184-8.046,152.522
	c9.636,10.709,20.93,19.033,33.14,24.951c0.619,0.478,1.207,1.012,1.749,1.613c4.956,5.508,4.509,13.991-0.999,18.947
	c-2.438,2.193-5.456,3.324-8.495,3.43c43.751,4.821,89.248-7.974,124.949-38.986c0.732-0.626,1.46-1.262,2.181-1.91
	C149.811,218.972,153.413,150.685,113.516,106.345z"/>
<path fill="#EE4056" d="M113.516,336.515c-39.896-44.34-108.184-47.94-152.523-8.044c-44.34,39.896-47.941,108.184-8.046,152.522
	c9.636,10.709,20.93,19.033,33.14,24.951c0.619,0.478,1.207,1.012,1.749,1.613c4.956,5.508,4.509,13.991-0.999,18.947
	c-2.438,2.193-5.456,3.324-8.495,3.43c43.751,4.821,89.248-7.974,124.949-38.986c0.732-0.626,1.46-1.262,2.181-1.91
	C149.811,449.142,153.413,380.855,113.516,336.515z"/>
</svg>
